<svg version="1.1" xmlns="http://www.w3.org/2000/svg" style="display: block;" viewBox="317.62 0 1417.7621333333334 326.9066666666667" width="1298" height="299" preserveAspectRatio="none" xmlns:xlink="http://www.w3.org/1999/xlink">
<path transform="translate(0,0)" fill="rgb(255,255,255)" d="M 0 0 L 2048 0 L 2048 328 L 0 328 L 0 0 z"/>
<path transform="translate(0,0)" fill="rgb(147,171,218)" d="M 1447.32 32.7723 C 1466.07 33.4155 1487.72 32.9418 1506.69 32.9952 C 1506.85 46.493 1511.03 62.3335 1513.79 75.7971 L 1525.85 134.53 C 1529.78 153.327 1536.38 190.966 1541.95 207.237 C 1547.97 200.919 1571.81 162.484 1578.58 152.221 L 1626.8 79.037 C 1636.62 64.1988 1647.82 48.1195 1656.89 32.9891 C 1675.88 32.7255 1695.7 33.0727 1714.76 33.1254 C 1695.61 122.472 1675.83 211.684 1655.43 300.754 C 1639.49 300.164 1621.72 300.304 1605.62 300.044 C 1607.92 286.614 1612.39 270.311 1615.55 256.821 L 1631.69 186.909 C 1633.59 173.246 1646.71 127.918 1646.44 118.177 L 1645.56 118.209 C 1641.58 122.462 1623.78 150.658 1619.34 157.411 L 1556.94 251.97 C 1540.37 251.711 1523.8 251.74 1507.23 252.059 C 1500.29 211.556 1488.72 169.634 1482.29 128.787 C 1481.7 125.008 1480.22 117.802 1477.03 115.491 L 1475.62 116.025 C 1472.96 140.221 1467.51 155.57 1462.21 179.283 L 1435.12 300.084 L 1384.96 300.364 C 1388.73 287.443 1391.71 271.613 1394.71 258.299 L 1407.95 202.021 L 1447.32 32.7723 z"/>
<path transform="translate(0,0)" fill="rgb(15,21,99)" d="M 397.741 33.0883 C 414.46 32.9291 431.179 32.9289 447.897 33.0879 C 451.072 38.7591 455.562 49.3283 458.635 55.6539 L 488.017 117.261 L 516.524 176.68 C 521.666 187.502 530.312 204.645 533.202 215.817 C 538.314 206.711 539.326 196.196 541.74 186.027 C 546.346 167.039 550.805 148.016 555.117 128.959 C 561.872 99.7487 571.993 62.0616 576.636 33.3282 C 592.654 32.4976 612.812 33.0359 629.145 33.0704 C 618.268 66.7476 571.711 293.05 567.063 299.084 C 565.987 300.481 563.9 300.209 562.25 300.365 C 546.864 300.319 531.479 300.381 516.094 300.55 C 512.268 291.321 505.894 279.071 501.508 269.752 L 478.276 219.26 C 463.408 187.187 448.714 154.914 433.734 122.89 C 432.197 119.603 430.957 117.47 427.624 116.354 C 427.349 118.397 426.939 120.531 426.996 122.601 C 427.157 128.512 424.672 133.947 423.434 139.615 C 419.509 157.216 415.377 174.771 411.038 192.275 L 385.69 300.373 C 368.207 300.487 350.724 300.398 333.242 300.106 C 336.906 293.64 342.75 264.231 345.116 254.745 C 357.04 206.935 367.581 157.904 379.311 110.115 C 383.132 94.548 392.539 45.3942 397.741 33.0883 z"/>
<path transform="translate(0,0)" fill="rgb(15,21,99)" d="M 664.065 33.0012 L 765.72 32.9243 C 809.645 33.0324 851.336 40.5644 850.915 94.5106 C 850.807 123.071 839.225 150.389 818.772 170.323 C 782.214 206.227 737.733 200.357 690.423 199.937 L 676.911 199.63 C 673.927 206.09 669.529 226.566 667.641 234.596 L 652.421 300.189 C 635.422 300.413 618.421 300.347 601.424 299.993 C 604.765 282.181 609.663 263.287 613.771 245.472 L 640.09 132.74 L 654.927 68.6717 C 657.243 58.7042 660.65 41.6552 664.065 33.0012 z"/>
<path transform="translate(0,0)" fill="rgb(255,255,255)" d="M 705.759 71.8677 C 727.278 72.3119 749.091 72.6089 770.519 74.4265 C 778.358 75.0914 790.668 81.5204 793.854 89.1489 C 804.701 115.121 792.37 141.105 768.523 154.366 C 745.722 164.803 709.994 162.027 684.01 161.91 C 692.305 136.485 698.05 99.4845 705.759 71.8677 z"/>
<path transform="translate(0,0)" fill="rgb(15,21,99)" d="M 886.836 33.2058 C 903.184 32.5468 922.425 32.9864 938.987 32.9711 C 934.689 47.4808 931.697 64.4732 928.335 79.4433 C 918.938 121.286 908.678 162.961 900.541 205.051 C 895.375 231.555 906.851 255.072 935.54 258.153 C 1021.47 268.086 1030.14 182.231 1043.88 120.233 C 1049.9 93.0482 1059.61 60.2528 1063.57 33.0168 C 1072.82 32.9736 1106.62 32.1481 1114.07 34.33 C 1114.26 37.9466 1108.05 63.3321 1106.88 68.4614 L 1086.83 151.268 C 1074.78 200.413 1065.89 245.129 1023.66 277.941 C 982.607 309.847 894.115 319.145 860.024 274.219 C 854.336 266.785 850.671 258.005 849.387 248.733 C 842.147 197.856 879.314 88.1456 886.836 33.2058 z"/>
<path transform="translate(0,0)" fill="rgb(147,171,218)" d="M 1215.04 29.2904 C 1266.44 27.0825 1302.67 28.715 1327.21 80.8274 C 1314.13 88.3554 1293.95 98.4496 1282.53 105.755 C 1265.79 77.543 1246.76 66.8455 1213.28 71.4236 C 1191.37 74.4199 1167.36 91.9365 1171.39 116.199 C 1175.88 143.25 1226.54 141.315 1246.97 147.856 C 1259.39 151.734 1270.06 154.159 1280.87 162.04 C 1310.58 182.258 1299.28 232.377 1281.36 257.025 C 1258.95 287.843 1227.83 298.026 1191.49 303.918 C 1152.24 304.26 1086.97 303.872 1079.42 245.872 C 1079.06 243.145 1116.38 222.197 1121.11 219.444 C 1139.43 257.76 1160.3 263.575 1201.2 259.207 C 1225.48 256.615 1248.19 234.264 1245.04 208.962 C 1241.96 191.057 1217.33 188.203 1203.23 185.543 C 1172.73 179.782 1124.42 175.22 1118.63 136.934 C 1115.34 115.124 1122.46 90.5772 1135.3 72.9391 C 1154.41 46.6915 1183.93 34.2689 1215.04 29.2904 z"/>
<path transform="translate(0,0)" fill="rgb(147,171,218)" d="M 1342.27 102.017 C 1353.52 101.952 1384.03 101.206 1393.76 102.581 C 1394.54 105.02 1352.52 293.723 1348.81 300.645 C 1339.95 300.123 1301.59 301.659 1297.93 298.546 C 1301.64 294.652 1300.85 288.854 1302.07 283.385 C 1304.7 271.527 1307.61 259.744 1310.22 247.883 C 1316.94 217.125 1323.92 186.428 1331.18 155.794 C 1333.73 144.825 1342.18 111.925 1342.27 102.017 z"/>
<path transform="translate(0,0)" fill="rgb(147,171,218)" d="M 1358.35 32.9306 L 1410.81 32.9429 C 1407.06 44.7199 1405.94 56.7778 1401.65 68.3297 C 1384.13 68.2431 1366.62 68.465 1349.11 68.9955 C 1352.83 58.1057 1356.47 44.2382 1358.35 32.9306 z"/>
</svg>